<?xml version="1.0" encoding="utf-8"?>
<!-- Generator: Adobe Illustrator 16.0.0, SVG Export Plug-In . SVG Version: 6.00 Build 0)  -->
<!DOCTYPE svg PUBLIC "-//W3C//DTD SVG 1.1//EN" "http://www.w3.org/Graphics/SVG/1.1/DTD/svg11.dtd">
<svg version="1.1" id="Layer_1" xmlns="http://www.w3.org/2000/svg" xmlns:xlink="http://www.w3.org/1999/xlink" x="0px" y="0px"
	 width="100px" height="100px" viewBox="-20 0 100 100" enable-background="new -20 0 100 100" xml:space="preserve">
<g id="Group_5398" transform="translate(-517 -1049)">
	<path id="Path_2466" fill="#FFFFFF" d="M571.789,1087.983h-2.893c-0.512-11.912-10.052-21.453-21.965-21.964v-2.893
		c0-0.528-0.428-0.956-0.955-0.956c-0.528,0-0.957,0.428-0.957,0.956v2.893c-11.913,0.511-21.454,10.052-21.965,21.964h-2.892
		c-0.528,0-0.956,0.429-0.956,0.957c0,0.527,0.428,0.956,0.956,0.956h2.892c0.511,11.912,10.053,21.454,21.965,21.965v2.893
		c0,0.527,0.429,0.956,0.957,0.956c0.527,0,0.955-0.429,0.955-0.956v-2.893c11.914-0.511,21.455-10.053,21.965-21.965h2.894
		c0.528,0,0.956-0.429,0.956-0.956C572.746,1088.412,572.318,1087.983,571.789,1087.983L571.789,1087.983z M566.984,1087.983h-1.771
		c-0.5-9.882-8.398-17.782-18.281-18.282v-1.77C557.789,1068.438,566.477,1077.126,566.984,1087.983L566.984,1087.983z
		 M559.959,1085.427c-0.527,0-0.956,0.428-0.956,0.956v1.601h-5.657v-0.7c0-0.528-0.429-0.956-0.957-0.956
		c-0.527,0-0.955,0.428-0.955,0.956l0,0v0.7h-1.918c-0.528,0-0.957,0.428-0.957,0.956c0,0.527,0.429,0.955,0.957,0.955l0,0h1.916
		v0.7c0,0.528,0.429,0.956,0.957,0.956c0.527,0,0.955-0.428,0.955-0.956v-0.7h5.658v1.601c0,0.528,0.428,0.956,0.956,0.956
		s0.956-0.428,0.956-0.956v-1.601h2.387c-0.495,8.828-7.543,15.876-16.371,16.371v-2.386h1.601c0.528,0,0.956-0.428,0.956-0.956
		c0-0.527-0.428-0.956-0.956-0.956h-1.601v-5.655h0.7c0.528,0,0.956-0.428,0.956-0.955c0-0.528-0.428-0.957-0.956-0.957h-0.7v-1.918
		c0-0.527-0.428-0.955-0.955-0.955c-0.528,0-0.957,0.428-0.957,0.955l0,0v1.918h-0.699c-0.528,0-0.956,0.429-0.956,0.957
		c0,0.527,0.428,0.955,0.956,0.955h0.699v5.658h-1.6c-0.527,0-0.956,0.428-0.956,0.956s0.429,0.956,0.956,0.956h1.6v2.387
		c-8.828-0.495-15.876-7.543-16.371-16.371h2.385v1.6c0,0.527,0.428,0.956,0.956,0.956c0.528,0,0.956-0.429,0.956-0.956v-1.6h5.657
		v0.699c0,0.528,0.429,0.956,0.957,0.956c0.527,0,0.955-0.428,0.955-0.956v-0.699h1.918c0.528,0,0.957-0.429,0.957-0.956
		c0-0.528-0.429-0.957-0.957-0.957h-1.918v-0.699c0-0.528-0.428-0.956-0.955-0.956c-0.528,0-0.957,0.428-0.957,0.956v0.699h-5.657
		v-1.6c0-0.527-0.428-0.956-0.956-0.956c-0.528,0-0.956,0.429-0.956,0.956v1.6h-2.386c0.494-8.829,7.543-15.878,16.374-16.373v2.386
		h-1.601c-0.528,0-0.956,0.428-0.956,0.956c0,0.528,0.428,0.956,0.956,0.956h1.601v5.658h-0.7c-0.528,0-0.956,0.428-0.956,0.955
		c0,0.528,0.428,0.957,0.956,0.957l0,0h0.7v1.918c0,0.528,0.428,0.957,0.955,0.957c0.528,0,0.957-0.429,0.957-0.957v-1.918h0.699
		c0.528,0,0.956-0.429,0.956-0.957c0-0.527-0.428-0.955-0.956-0.955h-0.699v-5.656h1.6c0.527,0,0.956-0.428,0.956-0.956
		c0-0.528-0.429-0.956-0.956-0.956l0,0h-1.6v-2.388c8.828,0.496,15.875,7.542,16.369,16.371h-2.386v-1.6
		c0.001-0.527-0.426-0.957-0.954-0.958C559.961,1085.426,559.96,1085.426,559.959,1085.427L559.959,1085.427z M545.02,1067.927v1.77
		c-9.887,0.498-17.79,8.401-18.288,18.287h-1.771c0.508-10.859,9.198-19.547,20.059-20.052V1067.927z M524.965,1089.893h1.767
		c0.5,9.883,8.4,17.783,18.284,18.282v1.771c-10.856-0.508-19.542-9.193-20.051-20.049L524.965,1089.893z M546.932,1109.95v-1.771
		c9.883-0.5,17.783-8.399,18.282-18.282h1.771C566.479,1100.754,557.791,1109.442,546.932,1109.95z"/>
</g>
<g>
	<path fill="#FFFFFF" d="M13.265,81.979c-0.184,0-0.32-0.064-0.408-0.192c-0.088-0.128-0.132-0.28-0.132-0.456
		s0.044-0.328,0.132-0.456c0.088-0.128,0.224-0.191,0.408-0.191h9.072c0.184,0,0.32,0.063,0.408,0.191s0.132,0.28,0.132,0.456
		s-0.044,0.328-0.132,0.456s-0.224,0.192-0.408,0.192h-3.612v2.004c0,0.208-0.074,0.357-0.222,0.45
		c-0.148,0.092-0.33,0.138-0.546,0.138c-0.208,0-0.386-0.046-0.534-0.138c-0.148-0.093-0.222-0.242-0.222-0.45v-2.004H13.265z
		 M14.465,77.826c-0.184,0-0.32-0.063-0.408-0.192c-0.088-0.128-0.132-0.283-0.132-0.468c0-0.184,0.044-0.34,0.132-0.468
		s0.224-0.192,0.408-0.192h5.976c0.384,0,0.65,0.072,0.798,0.216c0.148,0.145,0.222,0.404,0.222,0.78v0.937
		c0,0.271-0.014,0.552-0.042,0.84c-0.028,0.288-0.066,0.565-0.114,0.834c-0.048,0.268-0.102,0.52-0.162,0.756
		c-0.06,0.236-0.126,0.438-0.198,0.606l-1.356-0.288c0.12-0.424,0.208-0.866,0.264-1.326c0.056-0.46,0.084-0.902,0.084-1.326v-0.432
		c0-0.185-0.092-0.276-0.276-0.276H14.465z M15.569,85.494c0,0.184,0.092,0.276,0.276,0.276h5.388c0.184,0,0.32,0.063,0.408,0.191
		s0.132,0.284,0.132,0.468c0,0.177-0.044,0.328-0.132,0.456s-0.224,0.192-0.408,0.192h-6.192c-0.384,0-0.65-0.072-0.798-0.216
		c-0.148-0.145-0.222-0.404-0.222-0.78v-2.1c0-0.225,0.078-0.389,0.234-0.492c0.156-0.104,0.338-0.156,0.546-0.156
		c0.2,0,0.378,0.053,0.534,0.156c0.156,0.104,0.234,0.268,0.234,0.492V85.494z"/>
	<path fill="#FFFFFF" d="M24.761,78.138c-0.184,0-0.32-0.063-0.408-0.191c-0.088-0.128-0.132-0.28-0.132-0.456
		c0-0.184,0.044-0.34,0.132-0.468c0.088-0.128,0.224-0.192,0.408-0.192h3.612c0.384,0,0.65,0.072,0.798,0.216
		c0.148,0.145,0.222,0.404,0.222,0.78v1.332c0,0.336-0.02,0.64-0.06,0.912c-0.04,0.271-0.114,0.53-0.222,0.773
		c-0.108,0.244-0.258,0.482-0.45,0.715c-0.192,0.231-0.444,0.476-0.756,0.731s-0.69,0.532-1.134,0.828
		c-0.444,0.296-0.97,0.628-1.578,0.996c-0.168,0.104-0.342,0.122-0.522,0.054c-0.18-0.067-0.318-0.174-0.414-0.317
		c-0.096-0.145-0.144-0.313-0.144-0.505c0-0.191,0.088-0.344,0.264-0.455c0.544-0.328,1.01-0.618,1.398-0.87
		c0.388-0.252,0.712-0.479,0.972-0.679c0.26-0.199,0.464-0.384,0.612-0.552c0.148-0.168,0.26-0.338,0.336-0.51
		c0.076-0.172,0.124-0.35,0.144-0.534c0.02-0.184,0.03-0.396,0.03-0.636v-0.696c0-0.184-0.092-0.276-0.276-0.276H24.761z
		 M32.837,85.854c0,0.224-0.078,0.388-0.234,0.491c-0.156,0.104-0.338,0.156-0.546,0.156c-0.2,0-0.378-0.052-0.534-0.156
		c-0.155-0.104-0.233-0.268-0.233-0.491v-9.192c0-0.224,0.078-0.388,0.233-0.492c0.156-0.104,0.334-0.156,0.534-0.156
		c0.208,0,0.39,0.053,0.546,0.156c0.156,0.104,0.234,0.269,0.234,0.492V85.854z"/>
	<path fill="#FFFFFF" d="M40.997,82.614c-0.385,0.032-0.809,0.06-1.272,0.084c-0.464,0.023-0.95,0.046-1.458,0.065
		c-0.508,0.021-1.032,0.034-1.572,0.043c-0.54,0.008-1.082,0.012-1.626,0.012c-0.184,0-0.319-0.064-0.407-0.192
		c-0.089-0.128-0.133-0.279-0.133-0.456c0-0.176,0.044-0.328,0.133-0.456c0.088-0.128,0.224-0.191,0.407-0.191
		c0.232,0,0.469,0.002,0.708,0.006c0.24,0.004,0.48,0.002,0.721-0.006V79.83c0-0.224,0.077-0.388,0.233-0.492
		c0.156-0.104,0.33-0.155,0.522-0.155c0.191,0,0.366,0.052,0.521,0.155c0.156,0.104,0.234,0.269,0.234,0.492v1.668
		c0.487-0.016,0.97-0.036,1.446-0.06c0.476-0.024,0.953-0.057,1.434-0.097c0.184-0.016,0.322,0.032,0.414,0.145
		s0.146,0.26,0.162,0.443c0.016,0.16-0.012,0.311-0.084,0.45C41.309,82.521,41.181,82.599,40.997,82.614z M35.717,77.922
		c-0.185,0-0.32-0.063-0.408-0.191s-0.132-0.284-0.132-0.469c0-0.184,0.044-0.34,0.132-0.468s0.224-0.191,0.408-0.191h4.092
		c0.384,0,0.65,0.071,0.798,0.216c0.148,0.144,0.223,0.404,0.223,0.78v0.96c0,0.296-0.017,0.582-0.049,0.857
		c-0.031,0.276-0.08,0.53-0.144,0.762c-0.064,0.209-0.185,0.351-0.36,0.427s-0.368,0.09-0.576,0.042
		c-0.191-0.04-0.342-0.126-0.449-0.259c-0.108-0.132-0.139-0.306-0.09-0.521c0.096-0.456,0.144-0.904,0.144-1.344v-0.324
		c0-0.184-0.092-0.276-0.276-0.276H35.717z M43.169,85.782c0.184,0,0.319,0.063,0.408,0.192c0.088,0.127,0.132,0.279,0.132,0.455
		c0,0.177-0.044,0.328-0.132,0.456c-0.089,0.128-0.225,0.192-0.408,0.192h-6.061c-0.384,0-0.649-0.072-0.798-0.216
		c-0.148-0.145-0.222-0.404-0.222-0.78v-1.836c0-0.224,0.078-0.388,0.233-0.492c0.156-0.104,0.338-0.155,0.547-0.155
		c0.199,0,0.378,0.052,0.533,0.155c0.156,0.104,0.234,0.269,0.234,0.492v1.26c0,0.185,0.092,0.276,0.276,0.276H43.169z
		 M43.444,79.267h0.973c0.191,0,0.332,0.063,0.42,0.191s0.132,0.284,0.132,0.468c0,0.185-0.044,0.343-0.132,0.475
		s-0.229,0.198-0.42,0.198h-0.973v3.203c0,0.217-0.076,0.377-0.228,0.48c-0.152,0.104-0.328,0.156-0.528,0.156
		s-0.376-0.053-0.527-0.156c-0.152-0.104-0.229-0.264-0.229-0.48V76.65c0-0.216,0.076-0.376,0.229-0.48
		c0.151-0.104,0.327-0.156,0.527-0.156s0.376,0.053,0.528,0.156c0.151,0.104,0.228,0.265,0.228,0.48V79.267z"/>
</g>
</svg>
