<?xml version="1.0" encoding="utf-8"?>
<!-- Generator: Adobe Illustrator 16.0.0, SVG Export Plug-In . SVG Version: 6.00 Build 0)  -->
<!DOCTYPE svg PUBLIC "-//W3C//DTD SVG 1.1//EN" "http://www.w3.org/Graphics/SVG/1.1/DTD/svg11.dtd">
<svg version="1.1" id="Layer_1" xmlns="http://www.w3.org/2000/svg" xmlns:xlink="http://www.w3.org/1999/xlink" x="0px" y="0px"
	 width="100px" height="100px" viewBox="-20 0 100 100" enable-background="new -20 0 100 100" xml:space="preserve">
<g id="그룹_4962" transform="translate(-1225 -1049)">
	<g id="그룹_4954" transform="translate(-70.341 1570.356)">
		<path id="패스_732" fill="#FFFFFF" d="M1351.234-498.648c-2.853-2.91-6.758-4.547-10.833-4.539
			c-4.069-0.008-7.97,1.624-10.819,4.527l-3.11,3.028l-3.1-3.016c-2.853-2.91-6.758-4.546-10.833-4.539
			c-4.075-0.007-7.98,1.629-10.833,4.539c-3.306,3.342-4.919,8.003-4.386,12.674c0.053,0.495,0.496,0.853,0.99,0.801
			c0.001-0.001,0.002-0.001,0.003-0.001c0.494-0.052,0.853-0.495,0.801-0.989c0-0.001,0-0.003,0-0.003
			c-0.473-4.132,0.954-8.255,3.878-11.211c2.516-2.565,5.959-4.007,9.552-4c3.599-0.005,7.048,1.443,9.564,4.016l3.737,3.639
			c0.35,0.341,0.906,0.341,1.256,0l3.75-3.651c2.516-2.565,5.96-4.007,9.552-4c3.594-0.007,7.037,1.435,9.553,4
			c5.275,5.375,5.275,13.985,0,19.36l-23.482,23.759l-19.745-19.978c-0.35-0.354-0.919-0.356-1.272-0.007h0
			c-0.353,0.35-0.357,0.918-0.008,1.271l20.385,20.625c0.17,0.172,0.4,0.268,0.641,0.269c0.24-0.001,0.471-0.097,0.641-0.269
			l24.123-24.406C1357.205-482.828,1357.204-492.57,1351.234-498.648z"/>
		<path id="패스_733" fill="#FFFFFF" d="M1311.857-480.293l1.787-2.084l4.811,10.423c0.149,0.336,0.49,0.544,0.856,0.522
			c0.365-0.016,0.684-0.249,0.808-0.593l4.948-13.7l5.5,17.271c0.105,0.331,0.392,0.572,0.736,0.619
			c0.04,0.006,0.08,0.008,0.12,0.008c0.305,0,0.589-0.153,0.755-0.408l6.749-10.349c0.271-0.416,0.154-0.973-0.262-1.244
			s-0.974-0.154-1.246,0.262l-5.713,8.76l-5.724-17.988c-0.116-0.368-0.455-0.62-0.84-0.627c-0.386-0.008-0.733,0.23-0.864,0.594
			l-5.1,14.135l-4.48-9.707c-0.128-0.279-0.39-0.473-0.694-0.516c-0.304-0.041-0.608,0.074-0.807,0.307l-2.43,2.835h-9.034
			c-0.497,0-0.9,0.403-0.9,0.899l0,0c0,0.498,0.403,0.9,0.9,0.9l0,0h9.448C1311.442-479.979,1311.688-480.094,1311.857-480.293z"/>
	</g>
</g>
<g>
	<path fill="#FFFFFF" d="M24.537,84.426c-0.4,0.04-0.844,0.074-1.332,0.103c-0.488,0.028-1.002,0.05-1.542,0.065
		c-0.54,0.017-1.098,0.03-1.674,0.042c-0.576,0.013-1.152,0.019-1.728,0.019c-0.184,0-0.32-0.064-0.408-0.192
		s-0.132-0.283-0.132-0.468c0-0.176,0.044-0.328,0.132-0.456s0.224-0.192,0.408-0.192c1.024,0,2.054-0.012,3.09-0.035
		c1.036-0.024,2.062-0.08,3.078-0.168c0.184-0.017,0.322,0.031,0.414,0.144c0.092,0.112,0.146,0.256,0.162,0.432
		c0.016,0.177-0.012,0.335-0.084,0.475C24.849,84.332,24.721,84.41,24.537,84.426z M21.309,82.014c-0.496,0-0.93-0.065-1.302-0.197
		c-0.372-0.132-0.682-0.318-0.93-0.559c-0.248-0.239-0.436-0.523-0.564-0.852s-0.192-0.688-0.192-1.08s0.064-0.752,0.192-1.08
		s0.316-0.612,0.564-0.852c0.248-0.24,0.558-0.427,0.93-0.559c0.372-0.132,0.806-0.198,1.302-0.198c0.488,0,0.92,0.066,1.296,0.198
		s0.688,0.318,0.936,0.559c0.248,0.239,0.436,0.523,0.564,0.852s0.192,0.688,0.192,1.08s-0.064,0.752-0.192,1.08
		s-0.316,0.612-0.564,0.852c-0.248,0.24-0.56,0.427-0.936,0.559S21.797,82.014,21.309,82.014z M21.309,77.91
		c-0.528,0-0.916,0.132-1.164,0.396c-0.248,0.264-0.372,0.604-0.372,1.02s0.124,0.756,0.372,1.02
		c0.248,0.265,0.636,0.396,1.164,0.396s0.916-0.132,1.164-0.396c0.248-0.264,0.372-0.604,0.372-1.02s-0.124-0.756-0.372-1.02
		C22.225,78.042,21.837,77.91,21.309,77.91z M25.473,76.662c0-0.224,0.078-0.388,0.234-0.492c0.156-0.104,0.334-0.156,0.534-0.156
		c0.192,0,0.366,0.053,0.522,0.156c0.156,0.104,0.234,0.269,0.234,0.492v9.192c0,0.224-0.078,0.388-0.234,0.491
		c-0.156,0.104-0.33,0.156-0.522,0.156c-0.2,0-0.378-0.052-0.534-0.156c-0.156-0.104-0.234-0.268-0.234-0.491V76.662z"/>
	<path fill="#FFFFFF" d="M29.049,85.519c-0.184,0-0.32-0.064-0.408-0.192c-0.088-0.128-0.132-0.28-0.132-0.456
		c0-0.168,0.044-0.315,0.132-0.444c0.088-0.128,0.224-0.191,0.408-0.191h2.316v-2.292h1.451v2.292H34.4v-2.292h1.452v2.292h2.269
		c0.184,0,0.319,0.063,0.408,0.191c0.088,0.129,0.132,0.276,0.132,0.444c0,0.176-0.044,0.328-0.132,0.456
		c-0.089,0.128-0.225,0.192-0.408,0.192H29.049z M36.285,76.638c0.384,0,0.649,0.072,0.798,0.217
		c0.147,0.144,0.222,0.403,0.222,0.779v1.584c0,0.377-0.074,0.637-0.222,0.78c-0.148,0.145-0.414,0.216-0.798,0.216h-4.656
		c-0.185,0-0.276,0.093-0.276,0.276v0.492c0,0.184,0.092,0.275,0.276,0.275h5.376c0.184,0,0.32,0.064,0.408,0.192
		s0.132,0.28,0.132,0.456s-0.044,0.328-0.132,0.456s-0.225,0.191-0.408,0.191H30.86c-0.383,0-0.649-0.071-0.797-0.216
		c-0.148-0.144-0.222-0.403-0.222-0.779v-1.597c0-0.376,0.074-0.636,0.222-0.779c0.148-0.145,0.414-0.217,0.797-0.217h4.656
		c0.185,0,0.276-0.092,0.276-0.275v-0.48c0-0.184-0.092-0.275-0.276-0.275h-5.16c-0.184,0-0.32-0.064-0.408-0.192
		c-0.088-0.128-0.132-0.28-0.132-0.456s0.044-0.328,0.132-0.456c0.088-0.128,0.224-0.192,0.408-0.192H36.285z"/>
</g>
</svg>
