<?xml version="1.0" encoding="utf-8"?>
<!-- Generator: Adobe Illustrator 16.0.0, SVG Export Plug-In . SVG Version: 6.00 Build 0)  -->
<!DOCTYPE svg PUBLIC "-//W3C//DTD SVG 1.1//EN" "http://www.w3.org/Graphics/SVG/1.1/DTD/svg11.dtd">
<svg version="1.1" id="Layer_1" xmlns="http://www.w3.org/2000/svg" xmlns:xlink="http://www.w3.org/1999/xlink" x="0px" y="0px"
	 width="100px" height="100px" viewBox="-20 0 100 100" enable-background="new -20 0 100 100" xml:space="preserve">
<g id="그룹_4959" transform="translate(-871 -1049)">
	<g id="그룹_4952" transform="translate(191.02 1569.299)">
		<path id="패스_722" fill="#FFFFFF" d="M733.226-494.44v37.158c-0.001,1.293-1.049,2.341-2.341,2.343h-42.558
			c-1.293-0.002-2.341-1.049-2.342-2.343v-37.158h-1.8v37.158c0.003,2.286,1.855,4.14,4.142,4.142h42.558
			c2.286-0.002,4.139-1.855,4.141-4.142v-37.158H733.226z"/>
		<path id="패스_723" fill="#FFFFFF" d="M689.064-459.854c0.152,0.107,0.334,0.166,0.52,0.166c0.102,0,0.204-0.018,0.3-0.051
			c0.081-0.029,8.219-2.801,19.505,0.023c0.017,0,0.033,0,0.05,0.006c0.017,0.006,0.062,0.01,0.094,0.014
			c0.038,0.002,0.075,0.002,0.113,0c0.032,0,0.063-0.006,0.094-0.01c0.037-0.006,0.076-0.015,0.113-0.025
			c0.018-0.004,0.034-0.006,0.051-0.012c0.082-0.027,8.256-2.789,19.508,0.024c0.07,0.018,0.145,0.026,0.218,0.026
			c0.2,0,0.396-0.066,0.554-0.19c0.219-0.171,0.346-0.433,0.346-0.709v-37.254c0-0.366-0.221-0.695-0.56-0.833
			c-1.138-0.463-2.303-0.854-3.489-1.171v-7.381c0-0.323-0.172-0.621-0.451-0.781c-0.279-0.161-0.622-0.161-0.9,0l-15.659,9.145
			c-11.282-4.375-19.931,0.029-20.3,0.222c-0.297,0.156-0.483,0.464-0.482,0.8v37.254
			C688.686-460.298,688.827-460.024,689.064-459.854z M726.093-471.399c0.241-0.168,0.385-0.443,0.385-0.737v-25.835
			c0.753,0.216,1.506,0.457,2.249,0.741v35.5c-5.13-1.184-10.437-1.385-15.642-0.588L726.093-471.399z M710.731-497.516
			l13.947-8.146v33.057l-13.947,9.74V-497.516z M690.484-497.265c5.859-2.3,12.373-2.288,18.222,0.035v35.5
			c-3.123-0.703-6.314-1.062-9.515-1.067c-2.933-0.022-5.857,0.315-8.707,1.008V-497.265z"/>
	</g>
</g>
<g>
	<path fill="#FFFFFF" d="M20.073,77.13v-0.588c0-0.224,0.078-0.388,0.234-0.492c0.156-0.104,0.334-0.155,0.534-0.155
		c0.2,0,0.378,0.052,0.534,0.155c0.156,0.104,0.234,0.269,0.234,0.492v0.588h1.884c0.184,0,0.32,0.064,0.408,0.192
		c0.088,0.128,0.132,0.28,0.132,0.456c0,0.168-0.044,0.316-0.132,0.443c-0.088,0.129-0.224,0.192-0.408,0.192h-5.424
		c-0.184,0-0.32-0.063-0.408-0.192c-0.088-0.127-0.132-0.275-0.132-0.443c0-0.176,0.043-0.328,0.132-0.456
		c0.088-0.128,0.224-0.192,0.408-0.192H20.073z M20.841,78.858c0.824,0,1.47,0.172,1.938,0.516c0.468,0.344,0.702,0.824,0.702,1.44
		s-0.234,1.096-0.702,1.439c-0.468,0.345-1.114,0.517-1.938,0.517c-0.824,0-1.47-0.172-1.938-0.517
		c-0.468-0.344-0.702-0.823-0.702-1.439s0.234-1.097,0.702-1.44C19.371,79.03,20.017,78.858,20.841,78.858z M26.265,86.646
		c0,0.224-0.078,0.388-0.234,0.491c-0.156,0.104-0.33,0.156-0.522,0.156c-0.2,0-0.378-0.052-0.534-0.156
		c-0.156-0.104-0.234-0.268-0.234-0.491v-1.633c0-0.184-0.092-0.275-0.276-0.275h-4.956c-0.184,0-0.32-0.064-0.408-0.192
		s-0.132-0.275-0.132-0.443c0-0.176,0.044-0.328,0.132-0.456s0.224-0.192,0.408-0.192h5.736c0.384,0,0.65,0.072,0.798,0.216
		c0.148,0.145,0.222,0.404,0.222,0.78V86.646z M20.841,81.606c0.432,0,0.75-0.074,0.954-0.223c0.204-0.147,0.306-0.338,0.306-0.569
		c0-0.232-0.102-0.422-0.306-0.57c-0.204-0.147-0.522-0.222-0.954-0.222c-0.432,0-0.75,0.074-0.954,0.222
		c-0.204,0.148-0.306,0.338-0.306,0.57c0,0.231,0.102,0.422,0.306,0.569C20.091,81.532,20.409,81.606,20.841,81.606z M26.265,78.762
		h1.14c0.184,0,0.32,0.064,0.408,0.192s0.132,0.284,0.132,0.468c0,0.185-0.044,0.341-0.132,0.469s-0.224,0.191-0.408,0.191h-1.14
		v2.28c0,0.224-0.078,0.388-0.234,0.492c-0.156,0.104-0.33,0.155-0.522,0.155c-0.2,0-0.378-0.052-0.534-0.155
		c-0.156-0.104-0.234-0.269-0.234-0.492v-5.7c0-0.224,0.078-0.388,0.234-0.492c0.156-0.104,0.334-0.156,0.534-0.156
		c0.192,0,0.366,0.053,0.522,0.156c0.156,0.104,0.234,0.269,0.234,0.492V78.762z"/>
	<path fill="#FFFFFF" d="M33.249,84.234v-3.156c0-0.208,0.075-0.362,0.228-0.462s0.32-0.15,0.504-0.15
		c0.185,0,0.353,0.051,0.504,0.15c0.152,0.1,0.229,0.254,0.229,0.462v3.156h3.408c0.184,0,0.319,0.063,0.408,0.191
		c0.088,0.129,0.132,0.276,0.132,0.444c0,0.176-0.044,0.328-0.132,0.456c-0.089,0.128-0.225,0.192-0.408,0.192h-9.072
		c-0.184,0-0.32-0.064-0.408-0.192c-0.088-0.128-0.132-0.28-0.132-0.456c0-0.168,0.044-0.315,0.132-0.444
		c0.088-0.128,0.224-0.191,0.408-0.191h1.656v-3.156c0-0.208,0.075-0.362,0.228-0.462s0.32-0.15,0.504-0.15
		c0.185,0,0.353,0.051,0.504,0.15c0.152,0.1,0.229,0.254,0.229,0.462v3.156H33.249z M30.201,78.103c-0.184,0-0.32-0.064-0.408-0.192
		s-0.132-0.284-0.132-0.468c0-0.185,0.044-0.34,0.132-0.468s0.224-0.192,0.408-0.192h6.24c0.384,0,0.649,0.072,0.798,0.216
		c0.147,0.145,0.222,0.404,0.222,0.78v1.08c0,0.736-0.026,1.388-0.078,1.956c-0.052,0.567-0.134,1.104-0.246,1.607
		c-0.048,0.216-0.162,0.364-0.342,0.444s-0.378,0.1-0.594,0.06c-0.185-0.04-0.334-0.119-0.45-0.239s-0.154-0.288-0.114-0.504
		c0.104-0.505,0.181-1.028,0.229-1.572s0.071-1.141,0.071-1.788v-0.444c0-0.184-0.092-0.275-0.275-0.275H30.201z"/>
</g>
</svg>
