<?xml version="1.0" encoding="utf-8"?>
<!-- Generator: Adobe Illustrator 16.0.0, SVG Export Plug-In . SVG Version: 6.00 Build 0)  -->
<!DOCTYPE svg PUBLIC "-//W3C//DTD SVG 1.1//EN" "http://www.w3.org/Graphics/SVG/1.1/DTD/svg11.dtd">
<svg version="1.1" id="Layer_1" xmlns="http://www.w3.org/2000/svg" xmlns:xlink="http://www.w3.org/1999/xlink" x="0px" y="0px"
	 width="100px" height="100px" viewBox="-20 0 100 100" enable-background="new -20 0 100 100" xml:space="preserve">
<g id="그룹_4961" transform="translate(-1107 -1049)">
	<g id="그룹_4953" transform="translate(-34.622 1570.14)">
		<path id="패스_727" fill="#FFFFFF" d="M1190.231-481.029h-3.776l0.015-4.631h7.346c0.498,0,0.9-0.403,0.9-0.9l0,0v-6.244h-1.8
			v5.344h-6.44l0.027-8.533c0.008-1.358-0.529-2.662-1.491-3.62c-0.956-0.963-2.258-1.504-3.614-1.5h-20.801
			c-1.356-0.003-2.657,0.538-3.613,1.5c-0.96,0.957-1.499,2.258-1.493,3.614l0.009,8.543h-6.227v-5.98h-1.8v6.881
			c0,0.497,0.403,0.9,0.9,0.9l0,0h7.129l0.005,4.631h-3.737c-3,0-4.934,2.289-4.934,5.834v16.051h5.1
			c0.446,2.881,2.923,5.01,5.839,5.016c2.916-0.006,5.394-2.134,5.84-5.016h14.765c0.445,2.881,2.923,5.01,5.839,5.016
			c2.916-0.006,5.394-2.134,5.839-5.016h5.1v-16.051C1195.166-478.74,1193.229-481.029,1190.231-481.029z M1157.779-455.929
			c-1.924-0.003-3.59-1.338-4.013-3.215h8.027C1161.37-457.267,1159.703-455.932,1157.779-455.929L1157.779-455.929z
			 M1184.223-455.929c-1.924-0.003-3.59-1.338-4.013-3.215h8.025C1187.813-457.267,1186.147-455.932,1184.223-455.929
			L1184.223-455.929z M1193.366-460.945h-44.729v-3.699h44.729V-460.945z M1148.637-466.439v-8.756c0-0.947,0.226-4.034,3.134-4.034
			h5.538l-0.018-16.775c-0.003-0.878,0.345-1.721,0.968-2.341c0.619-0.623,1.461-0.972,2.339-0.969h20.8
			c0.879-0.002,1.723,0.348,2.342,0.971c0.622,0.621,0.97,1.466,0.965,2.345l-0.053,16.77h5.582c2.907,0,3.134,3.087,3.134,4.034
			v8.756H1148.637z"/>
		<path id="패스_728" fill="#FFFFFF" d="M1180.588-495.187h-19.173c-0.497,0-0.9,0.403-0.9,0.899c0,0,0,0,0,0v10.965
			c0,0.498,0.403,0.9,0.9,0.9l0,0h19.173c0.497,0,0.899-0.402,0.899-0.9l0,0v-10.965
			C1181.487-494.784,1181.085-495.187,1180.588-495.187z M1179.688-484.221h-17.374v-9.166h17.374V-484.221z"/>
		<path id="패스_729" fill="#FFFFFF" d="M1149.274-500.896c-0.053-2.209,1.691-4.045,3.9-4.105h35.851
			c2.209,0.06,3.953,1.896,3.899,4.105v2.855h1.8v-2.855c0.051-3.202-2.498-5.84-5.699-5.9h-35.851c-3.201,0.061-5.75,2.699-5.7,5.9
			v2.855h1.8L1149.274-500.896z"/>
		<path id="패스_730" fill="#FFFFFF" d="M1155.756-476.46c-2.128-0.138-3.967,1.473-4.112,3.6c-0.138,2.129,1.472,3.967,3.6,4.111
			c0.087,0.006,0.172,0.008,0.258,0.008c2.032-0.004,3.715-1.579,3.853-3.606l0,0
			C1159.494-474.477,1157.884-476.316,1155.756-476.46z M1155.363-470.546c-1.138-0.077-1.999-1.062-1.923-2.199
			c0.074-1.084,0.973-1.926,2.058-1.928c0.046,0,0.092,0,0.138,0c1.138,0.078,1.999,1.063,1.923,2.2
			C1157.482-471.335,1156.5-470.474,1155.363-470.546L1155.363-470.546z"/>
		<path id="패스_731" fill="#FFFFFF" d="M1186.759-476.46c-2.129-0.14-3.969,1.472-4.111,3.6c-0.07,1.023,0.271,2.031,0.948,2.801
			c0.674,0.772,1.628,1.244,2.651,1.31c0.088,0.005,0.175,0.009,0.262,0.009c0.935,0,1.838-0.34,2.539-0.957
			c0.773-0.674,1.245-1.629,1.311-2.651C1190.496-474.478,1188.886-476.316,1186.759-476.46z M1188.559-472.468
			c-0.035,0.547-0.287,1.056-0.701,1.415c-0.41,0.362-0.948,0.545-1.494,0.507c-0.547-0.035-1.057-0.287-1.417-0.699
			c-0.363-0.412-0.546-0.953-0.507-1.5c0.074-1.084,0.973-1.926,2.059-1.928c0.045,0,0.091,0,0.138,0
			c1.138,0.078,1.998,1.063,1.923,2.2V-472.468z"/>
		<rect id="사각형_1833" x="1164.39" y="-473.74" fill="#FFFFFF" width="13.229" height="1.801"/>
	</g>
</g>
<g>
	<path fill="#FFFFFF" d="M10.374,83.72v3.097c0,0.224-0.076,0.386-0.228,0.485c-0.152,0.101-0.32,0.15-0.504,0.15
		c-0.192,0-0.364-0.05-0.516-0.15c-0.152-0.1-0.228-0.262-0.228-0.485V83.72H6.785c-0.184,0-0.32-0.063-0.408-0.191
		c-0.088-0.128-0.132-0.276-0.132-0.444c0-0.176,0.044-0.328,0.132-0.456c0.088-0.128,0.224-0.191,0.408-0.191h9.072
		c0.184,0,0.32,0.063,0.408,0.191s0.132,0.28,0.132,0.456c0,0.168-0.044,0.316-0.132,0.444s-0.224,0.191-0.408,0.191h-2.112v3.097
		c0,0.224-0.076,0.386-0.228,0.485c-0.152,0.101-0.32,0.15-0.504,0.15c-0.192,0-0.364-0.05-0.516-0.15
		c-0.152-0.1-0.228-0.262-0.228-0.485V83.72H10.374z M7.542,79.004c0-0.416,0.086-0.781,0.258-1.098s0.422-0.582,0.75-0.798
		c0.328-0.217,0.724-0.378,1.188-0.486s0.992-0.162,1.584-0.162c0.584,0,1.11,0.054,1.578,0.162c0.468,0.108,0.866,0.27,1.194,0.486
		c0.328,0.216,0.578,0.481,0.75,0.798s0.258,0.682,0.258,1.098c0,0.832-0.336,1.464-1.008,1.896
		c-0.672,0.432-1.596,0.647-2.772,0.647c-1.176,0-2.1-0.216-2.772-0.647C7.877,80.468,7.542,79.836,7.542,79.004z M13.565,79.004
		c0-0.368-0.174-0.668-0.522-0.899c-0.348-0.232-0.922-0.349-1.722-0.349s-1.374,0.116-1.722,0.349
		c-0.348,0.231-0.522,0.531-0.522,0.899s0.174,0.668,0.522,0.9c0.348,0.231,0.922,0.348,1.722,0.348s1.374-0.116,1.722-0.348
		C13.391,79.672,13.565,79.372,13.565,79.004z"/>
	<path fill="#FFFFFF" d="M17.693,83.145c-0.184,0-0.318-0.061-0.402-0.181c-0.084-0.12-0.126-0.268-0.126-0.443
		c0-0.168,0.042-0.313,0.126-0.433c0.084-0.12,0.218-0.18,0.402-0.18h3.792v-1.404h1.512v1.404h3.792c0.185,0,0.318,0.06,0.402,0.18
		s0.126,0.265,0.126,0.433c0,0.176-0.042,0.323-0.126,0.443s-0.218,0.181-0.402,0.181H17.693z M18.461,85.592
		c0-0.352,0.086-0.651,0.258-0.899s0.422-0.452,0.75-0.612s0.724-0.278,1.188-0.354c0.464-0.076,0.992-0.114,1.584-0.114
		c0.584,0,1.11,0.038,1.578,0.114c0.468,0.075,0.866,0.193,1.194,0.354c0.327,0.16,0.577,0.364,0.75,0.612
		c0.172,0.248,0.258,0.548,0.258,0.899c0,0.353-0.086,0.652-0.258,0.9c-0.173,0.248-0.423,0.452-0.75,0.612
		c-0.328,0.159-0.727,0.277-1.194,0.354c-0.468,0.076-0.994,0.114-1.578,0.114c-0.592,0-1.12-0.038-1.584-0.114
		s-0.86-0.194-1.188-0.354c-0.328-0.16-0.578-0.364-0.75-0.612S18.461,85.944,18.461,85.592z M20.141,77.696
		c-0.12,0-0.18,0.06-0.18,0.18v0.396h5.4c0.16,0,0.28,0.056,0.36,0.168c0.079,0.111,0.119,0.244,0.119,0.396
		c0,0.16-0.04,0.296-0.119,0.408c-0.08,0.112-0.2,0.168-0.36,0.168h-5.4v0.396c0,0.12,0.06,0.181,0.18,0.181h5.508
		c0.168,0,0.292,0.058,0.372,0.174s0.12,0.254,0.12,0.414s-0.04,0.3-0.12,0.42s-0.204,0.18-0.372,0.18h-6.144
		c-0.384,0-0.65-0.071-0.798-0.216c-0.148-0.144-0.222-0.403-0.222-0.78v-2.676c0-0.376,0.074-0.636,0.222-0.78
		c0.148-0.144,0.414-0.216,0.798-0.216h5.964c0.168,0,0.291,0.059,0.371,0.174c0.08,0.116,0.12,0.255,0.12,0.414
		c0,0.16-0.04,0.301-0.12,0.42c-0.08,0.12-0.203,0.181-0.371,0.181H20.141z M24.497,85.592c0-0.248-0.174-0.439-0.521-0.576
		c-0.349-0.136-0.926-0.203-1.734-0.203s-1.386,0.067-1.734,0.203c-0.348,0.137-0.522,0.328-0.522,0.576s0.174,0.44,0.522,0.576
		s0.926,0.204,1.734,0.204s1.386-0.068,1.734-0.204C24.323,86.032,24.497,85.84,24.497,85.592z"/>
	<path fill="#FFFFFF" d="M32.226,76.004c0.176,0.048,0.312,0.145,0.407,0.288c0.097,0.145,0.112,0.309,0.049,0.492l-3.408,9.996
		c-0.072,0.208-0.194,0.338-0.366,0.39s-0.351,0.05-0.534-0.006c-0.176-0.048-0.31-0.143-0.402-0.282
		c-0.092-0.14-0.105-0.306-0.042-0.498l3.396-9.996c0.072-0.208,0.194-0.338,0.366-0.39S32.041,75.948,32.226,76.004z"/>
	<path fill="#FFFFFF" d="M33.821,82.977c-0.184,0-0.32-0.064-0.408-0.192s-0.132-0.276-0.132-0.444c0-0.176,0.044-0.328,0.132-0.456
		s0.225-0.191,0.408-0.191h9.072c0.184,0,0.319,0.063,0.408,0.191c0.088,0.128,0.132,0.28,0.132,0.456
		c0,0.168-0.044,0.316-0.132,0.444c-0.089,0.128-0.225,0.192-0.408,0.192h-3.612v1.415c0,0.209-0.074,0.358-0.222,0.45
		c-0.148,0.093-0.33,0.139-0.546,0.139c-0.208,0-0.387-0.046-0.534-0.139c-0.148-0.092-0.222-0.241-0.222-0.45v-1.415H33.821z
		 M41.789,85.977c0.185,0,0.32,0.063,0.408,0.191s0.132,0.28,0.132,0.456s-0.044,0.328-0.132,0.456s-0.224,0.192-0.408,0.192h-6.191
		c-0.384,0-0.65-0.072-0.798-0.217c-0.148-0.144-0.223-0.403-0.223-0.779v-1.86c0-0.224,0.078-0.388,0.234-0.492
		c0.156-0.104,0.338-0.155,0.546-0.155c0.2,0,0.378,0.052,0.534,0.155c0.156,0.104,0.233,0.269,0.233,0.492V85.7
		c0,0.184,0.093,0.276,0.276,0.276H41.789z M34.602,78.704c0-0.384,0.086-0.716,0.258-0.996s0.42-0.512,0.744-0.696
		c0.324-0.184,0.718-0.321,1.182-0.414c0.464-0.092,0.988-0.138,1.572-0.138s1.108,0.046,1.572,0.138
		c0.464,0.093,0.857,0.23,1.182,0.414c0.324,0.185,0.572,0.416,0.744,0.696s0.258,0.612,0.258,0.996s-0.086,0.716-0.258,0.996
		s-0.42,0.512-0.744,0.696c-0.324,0.184-0.718,0.321-1.182,0.414c-0.464,0.092-0.988,0.138-1.572,0.138s-1.108-0.046-1.572-0.138
		c-0.464-0.093-0.857-0.23-1.182-0.414c-0.324-0.185-0.572-0.416-0.744-0.696S34.602,79.088,34.602,78.704z M40.59,78.704
		c0-0.304-0.173-0.544-0.517-0.72s-0.916-0.265-1.716-0.265s-1.372,0.089-1.716,0.265s-0.517,0.416-0.517,0.72
		s0.173,0.544,0.517,0.72c0.344,0.177,0.916,0.265,1.716,0.265s1.372-0.088,1.716-0.265C40.417,79.248,40.59,79.008,40.59,78.704z"
		/>
	<path fill="#FFFFFF" d="M48.521,80.769c0-0.225,0.078-0.387,0.234-0.486c0.155-0.1,0.329-0.15,0.521-0.15s0.366,0.051,0.522,0.15
		c0.155,0.1,0.233,0.262,0.233,0.486v0.708h3.792c0.185,0,0.318,0.062,0.402,0.186s0.126,0.274,0.126,0.45s-0.042,0.326-0.126,0.45
		s-0.218,0.186-0.402,0.186h-9.096c-0.185,0-0.318-0.062-0.402-0.186s-0.126-0.274-0.126-0.45s0.042-0.326,0.126-0.45
		s0.218-0.186,0.402-0.186h3.792V80.769z M50.057,77.313c0,0.328,0.1,0.59,0.3,0.785c0.2,0.196,0.492,0.379,0.876,0.547
		c0.36,0.16,0.694,0.302,1.002,0.426s0.634,0.25,0.979,0.378c0.144,0.056,0.233,0.17,0.27,0.342s0.021,0.338-0.042,0.498
		c-0.032,0.08-0.076,0.15-0.132,0.21c-0.057,0.06-0.12,0.11-0.192,0.15s-0.149,0.063-0.233,0.071
		c-0.084,0.009-0.167-0.004-0.246-0.036c-0.265-0.096-0.557-0.207-0.876-0.336c-0.32-0.128-0.62-0.252-0.9-0.371
		c-0.568-0.24-0.964-0.448-1.188-0.624c-0.225-0.177-0.353-0.337-0.385-0.48h-0.012c-0.04,0.168-0.172,0.34-0.396,0.516
		c-0.225,0.177-0.62,0.385-1.188,0.624c-0.28,0.12-0.57,0.24-0.87,0.36s-0.59,0.232-0.87,0.336
		c-0.191,0.072-0.364,0.064-0.516-0.024c-0.152-0.088-0.26-0.211-0.324-0.371c-0.064-0.152-0.082-0.318-0.054-0.498
		c0.027-0.181,0.122-0.303,0.282-0.366c0.344-0.128,0.67-0.254,0.978-0.378s0.642-0.266,1.002-0.426
		c0.384-0.168,0.676-0.351,0.876-0.547c0.2-0.195,0.3-0.457,0.3-0.785V77c0-0.231,0.078-0.399,0.234-0.504
		c0.156-0.104,0.338-0.156,0.546-0.156s0.39,0.053,0.546,0.156c0.156,0.104,0.234,0.272,0.234,0.504V77.313z M45.496,85.448
		c0-0.368,0.086-0.687,0.259-0.954c0.172-0.268,0.422-0.488,0.75-0.66c0.327-0.172,0.724-0.3,1.188-0.384s0.992-0.126,1.584-0.126
		c0.584,0,1.11,0.042,1.578,0.126s0.866,0.212,1.194,0.384c0.327,0.172,0.577,0.393,0.75,0.66c0.172,0.268,0.258,0.586,0.258,0.954
		s-0.086,0.686-0.258,0.954c-0.173,0.268-0.423,0.487-0.75,0.66c-0.328,0.172-0.727,0.3-1.194,0.384s-0.994,0.126-1.578,0.126
		c-0.592,0-1.12-0.042-1.584-0.126s-0.86-0.212-1.188-0.384c-0.328-0.173-0.578-0.393-0.75-0.66
		C45.582,86.134,45.496,85.816,45.496,85.448z M51.532,85.448c0-0.288-0.174-0.512-0.521-0.672c-0.349-0.16-0.927-0.24-1.734-0.24
		s-1.386,0.08-1.734,0.24c-0.348,0.16-0.521,0.384-0.521,0.672s0.174,0.512,0.521,0.672c0.349,0.16,0.927,0.24,1.734,0.24
		s1.386-0.08,1.734-0.24C51.358,85.96,51.532,85.736,51.532,85.448z"/>
</g>
</svg>
