<?xml version="1.0" encoding="utf-8"?>
<!-- Generator: Adobe Illustrator 16.0.0, SVG Export Plug-In . SVG Version: 6.00 Build 0)  -->
<!DOCTYPE svg PUBLIC "-//W3C//DTD SVG 1.1//EN" "http://www.w3.org/Graphics/SVG/1.1/DTD/svg11.dtd">
<svg version="1.1" id="Layer_1" xmlns="http://www.w3.org/2000/svg" xmlns:xlink="http://www.w3.org/1999/xlink" x="0px" y="0px"
	 width="100px" height="100px" viewBox="-20 0 100 100" enable-background="new -20 0 100 100" xml:space="preserve">
<g id="그룹_4963" transform="translate(-1343 -1049)">
	<g id="그룹_4955" transform="translate(-105.957 1569.125)">
		<path id="패스_734" fill="#FFFFFF" d="M1469.359-460.163c0.497,0,0.9-0.403,0.9-0.899l0,0v-38.693c0-0.497-0.403-0.9-0.9-0.9
			l0,0h-7.649c-0.497,0-0.9,0.403-0.9,0.9l0,0v38.693c0,0.496,0.403,0.899,0.9,0.899l0,0H1469.359z M1462.61-498.856h5.849v36.893
			h-5.849V-498.856z"/>
		<path id="패스_735" fill="#FFFFFF" d="M1475.205-493.457h13.048c0.497,0,0.9-0.402,0.9-0.9l0,0v-5.399
			c0-0.497-0.403-0.9-0.9-0.9l0,0h-13.048c-0.497,0-0.9,0.403-0.9,0.9l0,0v5.399
			C1474.305-493.859,1474.708-493.457,1475.205-493.457L1475.205-493.457z M1476.105-498.857h11.249v3.6h-11.249V-498.857z"/>
		<path id="패스_736" fill="#FFFFFF" d="M1474.305-483.559c0,0.496,0.403,0.899,0.9,0.899l0,0h13.048c0.497,0,0.9-0.403,0.9-0.899
			l0,0v-5.4c0-0.497-0.403-0.9-0.9-0.9l0,0h-13.048c-0.497,0-0.9,0.403-0.9,0.9l0,0V-483.559z M1476.105-488.059h11.249v3.6h-11.249
			V-488.059z"/>
		<path id="패스_737" fill="#FFFFFF" d="M1474.305-472.762c0,0.498,0.403,0.9,0.9,0.9l0,0h13.048c0.497,0,0.9-0.402,0.9-0.9l0,0
			v-5.399c0-0.497-0.403-0.899-0.9-0.899l0,0h-13.048c-0.497,0-0.9,0.402-0.9,0.899l0,0V-472.762z M1476.105-477.262h11.249v3.601
			h-11.249V-477.262z"/>
		<path id="패스_738" fill="#FFFFFF" d="M1474.305-461.963c0,0.497,0.403,0.9,0.9,0.9l0,0h13.048c0.497,0,0.9-0.403,0.9-0.9l0,0
			v-5.4c0-0.497-0.403-0.9-0.9-0.9l0,0h-13.048c-0.497,0-0.9,0.403-0.9,0.9l0,0V-461.963z M1476.105-466.463h11.249v3.6h-11.249
			V-466.463z"/>
		<path id="패스_739" fill="#FFFFFF" d="M1503.105-501.556h-6.4c-0.521-3.112-3.211-5.395-6.367-5.4h-30.717
			c-3.567,0.004-6.458,2.896-6.462,6.463v39.879c0,0.497,0.403,0.9,0.9,0.9l0,0c0.497,0,0.9-0.403,0.9-0.9l0,0v-39.879
			c0.003-2.574,2.089-4.66,4.663-4.663h30.717c2.574,0.003,4.66,2.089,4.663,4.663v39.879c0,0.497,0.403,0.9,0.9,0.9l0,0
			c0.497,0,0.9-0.403,0.9-0.9l0,0v-16.646h6.299c0.498,0,0.9-0.403,0.9-0.9l0,0v-22.5C1504-501.154,1503.6-501.555,1503.105-501.556
			z M1502.205-479.057h-5.4v-20.699h5.4V-479.057z"/>
		<path id="패스_740" fill="#FFFFFF" d="M1503.105-456.114h-49.042c-0.497,0-0.9,0.403-0.9,0.9l0,0c0,0.497,0.403,0.899,0.9,0.899
			l0,0h49.042c0.496,0,0.899-0.402,0.899-0.899l0,0C1504.005-455.711,1503.602-456.114,1503.105-456.114L1503.105-456.114z"/>
	</g>
</g>
<text transform="matrix(1 0 0 1 17.2051 85.4102)" fill="#FFFFFF" font-family="'NanumSquareRoundEB'" font-size="12">호텔</text>
</svg>
