<?xml version="1.0" encoding="utf-8"?>
<!-- Generator: Adobe Illustrator 16.0.0, SVG Export Plug-In . SVG Version: 6.00 Build 0)  -->
<!DOCTYPE svg PUBLIC "-//W3C//DTD SVG 1.1//EN" "http://www.w3.org/Graphics/SVG/1.1/DTD/svg11.dtd">
<svg version="1.1" id="Layer_1" xmlns="http://www.w3.org/2000/svg" xmlns:xlink="http://www.w3.org/1999/xlink" x="0px" y="0px"
	 width="100px" height="100px" viewBox="-20 0 100 100" enable-background="new -20 0 100 100" xml:space="preserve">
<g>
	<path fill="#FFFFFF" d="M54.156,12.67H5.097c-0.552,0-1,0.448-1,1v34.345c0,0.553,0.448,1,1,1h16.333L11.92,65.646
		c-0.274,0.479-0.107,1.09,0.372,1.364c0.157,0.09,0.327,0.132,0.496,0.132c0.347,0,0.685-0.181,0.869-0.504l10.077-17.624h11.978
		l10.077,17.624c0.185,0.323,0.522,0.504,0.869,0.504c0.168,0,0.339-0.042,0.495-0.132c0.479-0.274,0.646-0.885,0.372-1.364
		l-9.51-16.632h16.142c0.553,0,1-0.447,1-1V13.67C55.156,13.118,54.709,12.67,54.156,12.67z M53.156,47.015H6.097V14.67h47.06
		V47.015z"/>
	<path fill="#FFFFFF" d="M10.097,44.015h7.541h10h21.519c0.553,0,1-0.447,1-1V18.67c0-0.552-0.447-1-1-1h-39.06
		c-0.552,0-1,0.448-1,1v24.345C9.097,43.567,9.544,44.015,10.097,44.015z M14.638,39.015v-4c0-1.654,1.346-3,3-3h0.838v10h-0.838
		C15.983,42.015,14.638,40.669,14.638,39.015z M23.551,32.015v10h-3.075v-10H23.551z M25.551,42.015v-10h2.087c1.654,0,3,1.346,3,3
		v4c0,1.654-1.346,3-3,3H25.551z M11.097,19.67h37.06v22.345H31.612c0.635-0.838,1.025-1.87,1.025-3v-4c0-2.757-2.243-5-5-5h-10
		c-2.757,0-5,2.243-5,5v4c0,1.13,0.391,2.162,1.025,3h-2.566V19.67z"/>
</g>
<g>
	<path fill="#FFFFFF" d="M20.073,77.13v-0.588c0-0.224,0.078-0.388,0.234-0.492c0.156-0.104,0.334-0.155,0.534-0.155
		c0.2,0,0.378,0.052,0.534,0.155c0.156,0.104,0.234,0.269,0.234,0.492v0.588h1.884c0.184,0,0.32,0.064,0.408,0.192
		c0.088,0.128,0.132,0.28,0.132,0.456c0,0.168-0.044,0.316-0.132,0.443c-0.088,0.129-0.224,0.192-0.408,0.192h-5.424
		c-0.184,0-0.32-0.063-0.408-0.192c-0.088-0.127-0.132-0.275-0.132-0.443c0-0.176,0.043-0.328,0.132-0.456
		c0.088-0.128,0.224-0.192,0.408-0.192H20.073z M20.841,78.858c0.824,0,1.47,0.172,1.938,0.516c0.468,0.344,0.702,0.824,0.702,1.44
		s-0.234,1.096-0.702,1.439c-0.468,0.345-1.114,0.517-1.938,0.517c-0.824,0-1.47-0.172-1.938-0.517
		c-0.468-0.344-0.702-0.823-0.702-1.439s0.234-1.097,0.702-1.44C19.371,79.03,20.017,78.858,20.841,78.858z M26.265,86.646
		c0,0.224-0.078,0.388-0.234,0.491c-0.156,0.104-0.33,0.156-0.522,0.156c-0.2,0-0.378-0.052-0.534-0.156
		c-0.156-0.104-0.234-0.268-0.234-0.491v-1.633c0-0.184-0.092-0.275-0.276-0.275h-4.956c-0.184,0-0.32-0.064-0.408-0.192
		s-0.132-0.275-0.132-0.443c0-0.176,0.044-0.328,0.132-0.456s0.224-0.192,0.408-0.192h5.736c0.384,0,0.65,0.072,0.798,0.216
		c0.148,0.145,0.222,0.404,0.222,0.78V86.646z M20.841,81.606c0.432,0,0.75-0.074,0.954-0.223c0.204-0.147,0.306-0.338,0.306-0.569
		c0-0.232-0.102-0.422-0.306-0.57c-0.204-0.147-0.522-0.222-0.954-0.222c-0.432,0-0.75,0.074-0.954,0.222
		c-0.204,0.148-0.306,0.338-0.306,0.57c0,0.231,0.102,0.422,0.306,0.569C20.091,81.532,20.409,81.606,20.841,81.606z M26.265,78.762
		h1.14c0.184,0,0.32,0.064,0.408,0.192s0.132,0.284,0.132,0.468c0,0.185-0.044,0.341-0.132,0.469s-0.224,0.191-0.408,0.191h-1.14
		v2.28c0,0.224-0.078,0.388-0.234,0.492c-0.156,0.104-0.33,0.155-0.522,0.155c-0.2,0-0.378-0.052-0.534-0.155
		c-0.156-0.104-0.234-0.269-0.234-0.492v-5.7c0-0.224,0.078-0.388,0.234-0.492c0.156-0.104,0.334-0.156,0.534-0.156
		c0.192,0,0.366,0.053,0.522,0.156c0.156,0.104,0.234,0.269,0.234,0.492V78.762z"/>
	<path fill="#FFFFFF" d="M29.169,82.194c-0.184,0-0.318-0.063-0.402-0.187s-0.126-0.273-0.126-0.449c0-0.177,0.042-0.326,0.126-0.45
		s0.218-0.187,0.402-0.187c0.968,0,1.983-0.016,3.048-0.048c1.063-0.032,2.104-0.107,3.12-0.228c0.184-0.024,0.324,0.02,0.42,0.132
		s0.152,0.256,0.168,0.432c0.017,0.168-0.012,0.318-0.084,0.45s-0.2,0.21-0.384,0.234c-0.352,0.048-0.74,0.09-1.164,0.126
		c-0.425,0.036-0.872,0.065-1.344,0.09v1.164c0,0.208-0.074,0.357-0.223,0.45c-0.147,0.092-0.33,0.138-0.546,0.138
		c-0.208,0-0.386-0.046-0.534-0.138c-0.147-0.093-0.222-0.242-0.222-0.45V82.17c-0.384,0.017-0.764,0.024-1.14,0.024
		C29.909,82.194,29.537,82.194,29.169,82.194z M32.289,80.346c-0.977,0-1.708-0.188-2.196-0.563
		c-0.488-0.376-0.732-0.88-0.732-1.512s0.244-1.136,0.732-1.513c0.488-0.376,1.22-0.563,2.196-0.563
		c0.976,0,1.708,0.188,2.195,0.563c0.488,0.377,0.732,0.881,0.732,1.513s-0.244,1.136-0.732,1.512
		C33.997,80.158,33.265,80.346,32.289,80.346z M37.641,85.782c0.185,0,0.32,0.063,0.408,0.192c0.088,0.127,0.132,0.279,0.132,0.455
		c0,0.177-0.044,0.328-0.132,0.456s-0.224,0.192-0.408,0.192h-6.275c-0.385,0-0.65-0.072-0.799-0.216
		c-0.147-0.145-0.221-0.404-0.221-0.78v-1.404c0-0.224,0.078-0.388,0.234-0.491c0.155-0.104,0.338-0.156,0.546-0.156
		c0.199,0,0.378,0.052,0.534,0.156c0.155,0.104,0.233,0.268,0.233,0.491v0.828c0,0.185,0.092,0.276,0.276,0.276H37.641z
		 M32.289,79.146c0.512,0,0.888-0.078,1.128-0.234s0.359-0.37,0.359-0.642c0-0.272-0.119-0.486-0.359-0.643
		s-0.616-0.233-1.128-0.233c-0.513,0-0.889,0.077-1.128,0.233c-0.24,0.156-0.36,0.37-0.36,0.643c0,0.271,0.12,0.485,0.36,0.642
		C31.4,79.068,31.776,79.146,32.289,79.146z M36.393,83.658h-1.62c-0.176,0-0.306-0.06-0.39-0.18s-0.126-0.265-0.126-0.433
		s0.042-0.312,0.126-0.432s0.214-0.18,0.39-0.18h1.62v-5.772c0-0.224,0.078-0.388,0.234-0.492c0.156-0.104,0.334-0.156,0.534-0.156
		c0.191,0,0.366,0.053,0.521,0.156c0.156,0.104,0.234,0.269,0.234,0.492v7.248c0,0.224-0.078,0.388-0.234,0.492
		c-0.155,0.104-0.33,0.156-0.521,0.156c-0.2,0-0.378-0.053-0.534-0.156c-0.156-0.104-0.234-0.269-0.234-0.492V83.658z"/>
</g>
</svg>
